<svg width="56" height="46" viewBox="0 0 56 46" fill="none" xmlns="http://www.w3.org/2000/svg">
<g clip-path="url(#clip0_2984_8452)">
<g clip-path="url(#clip1_2984_8452)">
<g clip-path="url(#clip2_2984_8452)">
<path d="M15.0005 16.5C15.0005 16.3674 15.0532 16.2402 15.1469 16.1464C15.2407 16.0527 15.3679 16 15.5005 16H17.0005C17.112 16 17.2203 16.0374 17.3082 16.106C17.3961 16.1747 17.4585 16.2708 17.4855 16.379L17.8905 18H29.5005C29.5739 18.0001 29.6464 18.0163 29.7128 18.0476C29.7793 18.0788 29.838 18.1243 29.8849 18.1808C29.9317 18.2373 29.9656 18.3035 29.984 18.3745C30.0024 18.4456 30.005 18.5198 29.9915 18.592L28.4915 26.592C28.47 26.7066 28.4092 26.8101 28.3196 26.8846C28.2299 26.9591 28.1171 26.9999 28.0005 27H19.0005C18.8839 26.9999 18.7711 26.9591 18.6814 26.8846C18.5917 26.8101 18.5309 26.7066 18.5095 26.592L17.0105 18.607L16.6105 17H15.5005C15.3679 17 15.2407 16.9473 15.1469 16.8536C15.0532 16.7598 15.0005 16.6326 15.0005 16.5ZM18.1025 19L19.4155 26H27.5855L28.8985 19H18.1025ZM20.0005 27C19.4701 27 18.9613 27.2107 18.5863 27.5858C18.2112 27.9609 18.0005 28.4696 18.0005 29C18.0005 29.5304 18.2112 30.0391 18.5863 30.4142C18.9613 30.7893 19.4701 31 20.0005 31C20.5309 31 21.0396 30.7893 21.4147 30.4142C21.7898 30.0391 22.0005 29.5304 22.0005 29C22.0005 28.4696 21.7898 27.9609 21.4147 27.5858C21.0396 27.2107 20.5309 27 20.0005 27ZM27.0005 27C26.4701 27 25.9613 27.2107 25.5863 27.5858C25.2112 27.9609 25.0005 28.4696 25.0005 29C25.0005 29.5304 25.2112 30.0391 25.5863 30.4142C25.9613 30.7893 26.4701 31 27.0005 31C27.5309 31 28.0396 30.7893 28.4147 30.4142C28.7898 30.0391 29.0005 29.5304 29.0005 29C29.0005 28.4696 28.7898 27.9609 28.4147 27.5858C28.0396 27.2107 27.5309 27 27.0005 27ZM20.0005 28C20.2657 28 20.5201 28.1054 20.7076 28.2929C20.8951 28.4804 21.0005 28.7348 21.0005 29C21.0005 29.2652 20.8951 29.5196 20.7076 29.7071C20.5201 29.8946 20.2657 30 20.0005 30C19.7353 30 19.4809 29.8946 19.2934 29.7071C19.1058 29.5196 19.0005 29.2652 19.0005 29C19.0005 28.7348 19.1058 28.4804 19.2934 28.2929C19.4809 28.1054 19.7353 28 20.0005 28ZM27.0005 28C27.2657 28 27.5201 28.1054 27.7076 28.2929C27.8951 28.4804 28.0005 28.7348 28.0005 29C28.0005 29.2652 27.8951 29.5196 27.7076 29.7071C27.5201 29.8946 27.2657 30 27.0005 30C26.7353 30 26.4809 29.8946 26.2934 29.7071C26.1058 29.5196 26.0005 29.2652 26.0005 29C26.0005 28.7348 26.1058 28.4804 26.2934 28.2929C26.4809 28.1054 26.7353 28 27.0005 28Z" fill="#23A6F0"/>
</g>
<path d="M36.5633 18.612H39.6113V27H38.2673V19.872H36.5633V18.612Z" fill="#23A6F0"/>
</g>
</g>
<defs>
<clipPath id="clip0_2984_8452">
<rect width="56" height="46" fill="white" transform="translate(0.000488281)"/>
</clipPath>
<clipPath id="clip1_2984_8452">
<rect width="56" height="46" fill="white" transform="translate(0.000488281)"/>
</clipPath>
<clipPath id="clip2_2984_8452">
<rect width="16" height="16" fill="white" transform="translate(15.0005 15)"/>
</clipPath>
</defs>
</svg>
