<svg width="55" height="46" viewBox="0 0 55 46" fill="none" xmlns="http://www.w3.org/2000/svg">
<g clip-path="url(#clip0_2984_8458)">
<g clip-path="url(#clip1_2984_8458)">
<g clip-path="url(#clip2_2984_8458)">
<path d="M23.0004 17.748L22.2834 17.011C20.6004 15.281 17.5144 15.878 16.4004 18.053C15.8774 19.076 15.7594 20.553 16.7144 22.438C17.6344 24.253 19.5484 26.427 23.0004 28.795C26.4524 26.427 28.3654 24.253 29.2864 22.438C30.2414 20.552 30.1244 19.076 29.6004 18.053C28.4864 15.878 25.4004 15.28 23.7174 17.01L23.0004 17.748ZM23.0004 30C7.66738 19.868 18.2794 11.96 22.8244 16.143C22.8844 16.198 22.9434 16.255 23.0004 16.314C23.0568 16.2551 23.1155 16.1984 23.1764 16.144C27.7204 11.958 38.3334 19.867 23.0004 30Z" fill="#23A6F0"/>
</g>
<path d="M36.5633 18.612H39.6113V27H38.2673V19.872H36.5633V18.612Z" fill="#23A6F0"/>
</g>
</g>
<defs>
<clipPath id="clip0_2984_8458">
<rect width="56" height="46" fill="white" transform="translate(0.000488281)"/>
</clipPath>
<clipPath id="clip1_2984_8458">
<rect width="56" height="46" fill="white" transform="translate(0.000488281)"/>
</clipPath>
<clipPath id="clip2_2984_8458">
<rect width="16" height="16" fill="white" transform="translate(15.0005 15)"/>
</clipPath>
</defs>
</svg>
