<svg width="27" height="26" viewBox="0 0 27 26" fill="none" xmlns="http://www.w3.org/2000/svg">
<g clip-path="url(#clip0_2984_8367)">
<path d="M21.002 13.0502C21.002 8.60424 17.42 5.00024 13.002 5.00024C8.582 5.00124 5 8.60424 5 13.0512C5 17.0682 7.926 20.3982 11.75 21.0022V15.3772H9.72V13.0512H11.752V11.2762C11.752 9.25924 12.947 8.14524 14.774 8.14524C15.65 8.14524 16.565 8.30224 16.565 8.30224V10.2822H15.556C14.563 10.2822 14.253 10.9032 14.253 11.5402V13.0502H16.471L16.117 15.3762H14.252V21.0012C18.076 20.3972 21.002 17.0672 21.002 13.0502Z" fill="white"/>
</g>
<defs>
<clipPath id="clip0_2984_8367">
<rect width="16" height="16" fill="white" transform="translate(5.5 5.00024)"/>
</clipPath>
</defs>
</svg>
