<svg width="13" height="14" viewBox="0 0 13 14" fill="none" xmlns="http://www.w3.org/2000/svg">
<path d="M6.49934 13.6667C3.20379 13.6232 0.54278 10.9622 0.499344 7.66668C0.54278 4.37113 3.20379 1.71011 6.49934 1.66668C9.79489 1.71011 12.4559 4.37113 12.4993 7.66668C12.4559 10.9622 9.79489 13.6232 6.49934 13.6667ZM6.49934 3.00001C3.93612 3.03376 1.86642 5.10346 1.83268 7.66668C1.86642 10.2299 3.93612 12.2996 6.49934 12.3333C9.06256 12.2996 11.1323 10.2299 11.166 7.66668C11.1323 5.10346 9.06256 3.03376 6.49934 3.00001ZM9.83268 8.33334H5.83268V4.33334H7.16601V7.00001H9.83268V8.33334ZM12.0273 3.47201L10.0213 1.47201L10.9607 0.527344L12.9673 2.52734L12.0273 3.47134V3.47201ZM0.970677 3.47201L0.0273438 2.52734L2.02134 0.527344L2.96468 1.47201L0.97201 3.47201H0.970677Z" fill="#23A6F0"/>
</svg>
