<svg width="16" height="16" viewBox="0 0 16 16" fill="none" xmlns="http://www.w3.org/2000/svg">
<path d="M11.7427 10.344C12.7109 9.02267 13.1446 7.38447 12.957 5.75713C12.7693 4.12979 11.9741 2.63332 10.7304 1.56711C9.48677 0.500899 7.8864 -0.056418 6.24949 0.00665514C4.61258 0.0697283 3.05984 0.748541 1.90192 1.90729C0.744005 3.06603 0.0663042 4.61926 0.00440239 6.25621C-0.0574994 7.89317 0.500963 9.49314 1.56806 10.736C2.63516 11.9789 4.1322 12.773 5.75967 12.9596C7.38715 13.1461 9.02503 12.7112 10.3457 11.742H10.3447C10.3747 11.782 10.4067 11.82 10.4427 11.857L14.2927 15.707C14.4802 15.8946 14.7345 16.0001 14.9998 16.0002C15.2651 16.0003 15.5195 15.895 15.7072 15.7075C15.8948 15.52 16.0003 15.2656 16.0004 15.0003C16.0005 14.7351 15.8952 14.4806 15.7077 14.293L11.8577 10.443C11.8219 10.4068 11.7835 10.3734 11.7427 10.343V10.344ZM12.0007 6.49998C12.0007 7.22225 11.8584 7.93745 11.582 8.60474C11.3056 9.27203 10.9005 9.87834 10.3897 10.3891C9.87902 10.8998 9.2727 11.3049 8.60541 11.5813C7.93812 11.8577 7.22292 12 6.50065 12C5.77838 12 5.06319 11.8577 4.3959 11.5813C3.7286 11.3049 3.12229 10.8998 2.61157 10.3891C2.10084 9.87834 1.69572 9.27203 1.41932 8.60474C1.14292 7.93745 1.00065 7.22225 1.00065 6.49998C1.00065 5.04129 1.58012 3.64234 2.61157 2.61089C3.64302 1.57944 5.04196 0.999979 6.50065 0.999979C7.95934 0.999979 9.35829 1.57944 10.3897 2.61089C11.4212 3.64234 12.0007 5.04129 12.0007 6.49998Z" fill="#23A6F0"/>
</svg>
