<svg width="27" height="26" viewBox="0 0 27 26" fill="none" xmlns="http://www.w3.org/2000/svg">
<g clip-path="url(#clip0_2984_8370)">
<path d="M10.026 19.0009C16.064 19.0009 19.367 13.9979 19.367 9.66694C19.367 9.52694 19.367 9.38494 19.361 9.24494C20.0041 8.77942 20.5591 8.20309 21 7.54294C20.3993 7.80779 19.7628 7.98234 19.111 8.06094C19.7975 7.65057 20.3117 7.00491 20.558 6.24394C19.913 6.62606 19.207 6.89431 18.471 7.03694C17.9762 6.50996 17.3214 6.16085 16.6081 6.04369C15.8948 5.92653 15.1627 6.04786 14.5253 6.38887C13.888 6.72989 13.3808 7.27157 13.0824 7.93C12.7841 8.58843 12.7112 9.32687 12.875 10.0309C11.5697 9.96549 10.2928 9.62641 9.12704 9.03568C7.96127 8.44495 6.93268 7.61578 6.108 6.60194C5.68934 7.32502 5.56157 8.18034 5.75065 8.9942C5.93972 9.80807 6.43145 10.5195 7.126 10.9839C6.60554 10.9663 6.09652 10.8265 5.64 10.5759V10.6209C5.6409 11.3784 5.90331 12.1124 6.38287 12.6987C6.86244 13.285 7.52975 13.6878 8.272 13.8389C7.99026 13.9166 7.69923 13.9552 7.407 13.9539C7.20098 13.9546 6.99538 13.9355 6.793 13.8969C7.00279 14.549 7.41127 15.1191 7.96125 15.5274C8.51122 15.9357 9.17513 16.1618 9.86 16.1739C8.69656 17.0877 7.2594 17.5833 5.78 17.5809C5.51932 17.582 5.25882 17.567 5 17.5359C6.50151 18.4932 8.2453 19.0015 10.026 19.0009Z" fill="white"/>
</g>
<defs>
<clipPath id="clip0_2984_8370">
<rect width="16" height="16" fill="white" transform="translate(5.5 5.00024)"/>
</clipPath>
</defs>
</svg>
