<svg width="27" height="26" viewBox="0 0 27 26" fill="none" xmlns="http://www.w3.org/2000/svg">
<g clip-path="url(#clip0_2984_8364)">
<path d="M14.051 6.99927H14.14C14.962 7.00227 19.127 7.03227 20.25 7.33427C20.5895 7.42644 20.8989 7.60609 21.1472 7.85528C21.3955 8.10446 21.574 8.41445 21.665 8.75427C21.766 9.13427 21.837 9.63727 21.885 10.1563L21.895 10.2603L21.917 10.5203L21.925 10.6243C21.99 11.5383 21.998 12.3943 21.999 12.5813V12.6563C21.998 12.8503 21.989 13.7643 21.917 14.7163L21.909 14.8213L21.9 14.9253C21.85 15.4973 21.776 16.0653 21.665 16.4833C21.5743 16.8232 21.3958 17.1334 21.1475 17.3826C20.8991 17.6318 20.5896 17.8114 20.25 17.9033C19.09 18.2153 14.681 18.2373 14.07 18.2383H13.928C13.619 18.2383 12.341 18.2323 11.001 18.1863L10.831 18.1803L10.744 18.1763L10.573 18.1693L10.402 18.1623C9.292 18.1133 8.235 18.0343 7.748 17.9023C7.40849 17.8105 7.09907 17.6311 6.85072 17.382C6.60238 17.133 6.42385 16.823 6.333 16.4833C6.222 16.0663 6.148 15.4973 6.098 14.9253L6.09 14.8203L6.082 14.7163C6.03265 14.0387 6.0053 13.3596 6 12.6803L6 12.5573C6.002 12.3423 6.01 11.5993 6.064 10.7793L6.071 10.6763L6.074 10.6243L6.082 10.5203L6.104 10.2603L6.114 10.1563C6.162 9.63727 6.233 9.13327 6.334 8.75427C6.42469 8.41432 6.60316 8.10418 6.85151 7.85495C7.09986 7.60572 7.40937 7.42616 7.749 7.33427C8.236 7.20427 9.293 7.12427 10.403 7.07427L10.573 7.06727L10.745 7.06127L10.831 7.05827L11.002 7.05127C11.9537 7.02064 12.9058 7.00364 13.858 7.00027H14.051V6.99927ZM12.4 10.2093V15.0273L16.557 12.6193L12.4 10.2093Z" fill="white"/>
</g>
<defs>
<clipPath id="clip0_2984_8364">
<rect width="16" height="16" fill="white" transform="translate(5.5 5.00024)"/>
</clipPath>
</defs>
</svg>
